<svg xmlns="http://www.w3.org/2000/svg" viewBox="0 0 2400 640" width="2400" height="640" preserveAspectRatio="xMidYMax meet"><defs><linearGradient id="g" gradientUnits="userSpaceOnUse" x1="0" y1="30" x2="0" y2="640"><stop offset="0" stop-color="#c98a68"/><stop offset="0.05" stop-color="#c98a68"/><stop offset="1" stop-color="#f0bf8b"/></linearGradient></defs><path fill="url(#g)" d="M0,640L0,70.3L8,71.6L16,70.6L24,70.4L32,69.7L40,71.4L48,77.5L56,82.2L64,85.1L72,85.1L80,84.5L88,87.1L96,87.4L104,87.3L112,87.1L120,88.4L128,92.1L136,95.9L144,100.2L152,105L160,107.5L168,115L176,121.3L184,124.3L192,125.5L200,126.2L208,127.7L216,128.7L224,131.7L232,133.6L240,133.1L248,130.2L256,126L264,121.9L272,118.6L280,121.7L288,125.2L296,128.7L304,131.9L312,134.3L320,136.2L328,136.7L336,138.3L344,141.2L352,141.6L360,138.7L368,133.7L376,128.4L384,124.2L392,119.8L400,115L408,109.9L416,105.2L424,103L432,101.1L440,97.4L448,90.7L456,85.2L464,82.1L472,76.2L480,68L488,66.5L496,63.5L504,60.6L512,59.3L520,61.8L528,68.8L536,71.7L544,79.4L552,85.1L560,86.1L568,84.9L576,83.2L584,86.6L592,90.3L600,91.6L608,91.1L616,89.4L624,87.6L632,86.6L640,90.7L648,95L656,99.6L664,104.4L672,109.6L680,115.4L688,121.2L696,126.5L704,129L712,128.1L720,133.7L728,134.4L736,132.1L744,128.5L752,124.5L760,119.9L768,114L776,110.5L784,117.3L792,121.2L800,124L808,129.4L816,137.3L824,143.9L832,148.7L840,151.2L848,152.2L856,152.8L864,154L872,155L880,157.1L888,160.1L896,161.9L904,161.6L912,159.5L920,156.1L928,151.6L936,145.5L944,141L952,138.7L960,136.5L968,134.2L976,132L984,129L992,124.7L1000,119.4L1008,113.4L1016,106.9L1024,98.8L1032,94L1040,93.8L1048,91.5L1056,92.1L1064,96L1072,105.3L1080,112.1L1088,116.3L1096,118L1104,118.5L1112,123.1L1120,127.9L1128,132.9L1136,135.3L1144,136L1152,135.8L1160,133.3L1168,128.8L1176,127.5L1184,125.1L1192,124.6L1200,121L1208,118.1L1216,116L1224,111.1L1232,107.9L1240,105.2L1248,102.3L1256,99L1264,97.3L1272,97.7L1280,96.6L1288,94.2L1296,95.3L1304,97.6L1312,101.4L1320,106.1L1328,111.6L1336,113.5L1344,112.6L1352,116.8L1360,122.1L1368,126.3L1376,129.3L1384,130.5L1392,129.3L1400,127.4L1408,128.2L1416,127L1424,123.6L1432,120L1440,116.8L1448,114.5L1456,111.7L1464,108.3L1472,104.7L1480,101.4L1488,99.1L1496,101.6L1504,102L1512,98.4L1520,95.5L1528,95.7L1536,92.9L1544,87.4L1552,85.7L1560,85.4L1568,82.6L1576,78.5L1584,80.2L1592,80.3L1600,80.8L1608,80.2L1616,82.1L1624,81.8L1632,80.8L1640,79.6L1648,82.1L1656,87.6L1664,93.6L1672,99.3L1680,104.3L1688,108.5L1696,111.2L1704,112.3L1712,110.6L1720,108.4L1728,115.3L1736,119.1L1744,121.2L1752,122L1760,121.7L1768,119.8L1776,115.5L1784,117.2L1792,121.5L1800,122.6L1808,123.9L1816,127.6L1824,130.2L1832,133.4L1840,136.9L1848,140.2L1856,142.8L1864,144.2L1872,144.7L1880,144.6L1888,144.6L1896,144.2L1904,143.2L1912,140.6L1920,137.5L1928,142L1936,144.1L1944,143.8L1952,142.9L1960,144.5L1968,147.5L1976,151.2L1984,155.1L1992,158.5L2000,161.4L2008,164.3L2016,167.3L2024,170.9L2032,175L2040,179.2L2048,182.7L2056,185.9L2064,188.9L2072,190.8L2080,192L2088,199.2L2096,205.1L2104,212.5L2112,216.5L2120,218.5L2128,222.7L2136,225.4L2144,226.8L2152,231.4L2160,239.9L2168,246.4L2176,251.8L2184,256.4L2192,260.2L2200,263.3L2208,265.8L2216,267.6L2224,268.2L2232,266.4L2240,261.1L2248,256L2256,249.3L2264,249.2L2272,250.7L2280,249.3L2288,243.1L2296,233L2304,221.8L2312,212.4L2320,203.1L2328,194.3L2336,185.1L2344,175.4L2352,175.4L2360,177.5L2368,179.2L2376,183.3L2384,186.4L2392,189.5L2400,193.1L2400,640Z"/><path fill="#c98a68" d=""/></svg>
