<svg xmlns="http://www.w3.org/2000/svg" viewBox="0 0 2400 300" width="2400" height="300" preserveAspectRatio="xMidYMax meet"><path fill="#0b1d18" d="M571.8,300Q576.7,220.8 573.2,167.9Q581.7,234 583.5,300ZM2298.2,300Q2316.4,274.2 2348.8,257Q2334.6,278.5 2318.3,300ZM18.4,300Q28.7,233.9 53.3,189.8Q39,244.9 26.7,300ZM2098.5,300Q2113.6,234.9 2149.6,191.5Q2128.8,245.8 2110.8,300ZM766.7,300Q774.2,209.7 767.6,149.4Q781.7,224.7 785,300ZM1580.6,300Q1585.8,217.4 1569,162.4Q1590.9,231.2 1599.3,300ZM1043.5,300Q1042.6,245.4 1010.8,209Q1041.6,254.5 1057.5,300ZM1512.9,300Q1513,195.8 1493.3,126.3Q1513,213.1 1522.9,300ZM1795.4,300Q1809.1,212.1 1821.2,153.5Q1822.7,226.7 1816.7,300ZM1473.8,300Q1476.8,214.2 1464.4,157Q1479.7,228.5 1485.9,300ZM2248.3,300Q2254.3,205.1 2250.8,141.9Q2260.4,221 2262.1,300ZM1597.1,300Q1598.8,258 1580.9,230Q1600.6,265 1609.6,300ZM617.9,300Q620,228.3 605.4,180.5Q622.2,240.2 629.5,300ZM1674,300Q1669.6,275.6 1635.1,259.3Q1665.2,279.6 1682.5,300ZM128.2,300Q131.4,264.7 123.9,241.2Q134.6,270.6 138.4,300ZM111.1,300Q123.6,235.6 140.8,192.7Q136.1,246.3 127.5,300ZM50.6,300Q56.2,269.3 34.8,248.9Q61.7,274.4 72.4,300ZM1587.8,300Q1592.3,248.9 1577.7,214.9Q1596.8,257.5 1604.1,300ZM2065.1,300Q2073.5,171.3 2075.5,85.5Q2082,192.8 2081,300ZM2272.7,300Q2284.5,223.5 2305.4,172.6Q2296.4,236.3 2285.9,300ZM2060.9,300Q2072.6,258.7 2100.8,231.2Q2084.3,265.6 2070.3,300ZM717,300Q718.8,227.6 690.1,179.4Q720.6,239.7 734.9,300ZM2028.1,300Q2039.7,244.9 2061.6,208.1Q2051.2,254.1 2040.3,300ZM1965.8,300Q1974.2,210.7 1977.1,151.2Q1982.6,225.6 1981.2,300ZM1959,300Q1965.3,249.2 1951.5,215.3Q1971.6,257.7 1978.4,300ZM1794.5,300Q1802.8,262.9 1801.3,238.2Q1811.1,269.1 1811.9,300ZM776.9,300Q776.9,209.4 754.7,149Q776.9,224.5 788,300ZM372.1,300Q376.8,254 353.5,223.3Q381.4,261.7 393,300ZM1505.3,300Q1519,232.1 1535.3,186.8Q1532.7,243.4 1524.5,300ZM1430.8,300Q1440,222.4 1456.3,170.7Q1449.3,235.3 1441.1,300ZM182.2,300Q181.8,244.8 160,207.9Q181.5,254 192.4,300ZM279.1,300Q276.9,225.7 250.7,176.1Q274.6,238.1 287.7,300ZM646.3,300Q657.3,203.3 685,138.8Q668.4,219.4 654.5,300ZM2321.9,300Q2323.9,205.2 2304.6,142.1Q2326,221 2335.6,300ZM1144.3,300Q1153.6,210.8 1171.3,151.4Q1162.9,225.7 1154,300ZM512.8,300Q516.9,259.2 511.2,232Q520.9,266 523.7,300ZM1620.2,300Q1623.8,187.6 1615,112.7Q1627.4,206.4 1631.8,300ZM1706.1,300Q1715.4,253.2 1725,222Q1724.7,261 1720,300ZM1549.5,300Q1548.6,238.5 1514,197.5Q1547.6,248.7 1564.9,300ZM2377,300Q2378.1,247.6 2347.2,212.7Q2379.2,256.4 2394.6,300ZM302.1,300Q307.9,234.4 313.5,190.7Q313.7,245.3 311,300ZM1468,300Q1465.6,215.7 1438.3,159.5Q1463.3,229.7 1477,300ZM1860.5,300Q1874.8,256.9 1896.2,228.2Q1889,264.1 1878.4,300ZM150.7,300Q151.3,248.4 136.2,213.9Q152,257 159.5,300ZM1446.4,300Q1451,205.7 1427.2,142.8Q1455.6,221.4 1467.5,300ZM189.3,300Q193.3,216.2 192.1,160.3Q197.3,230.2 198,300ZM2110.4,300Q2114.8,263.1 2108.9,238.5Q2119.2,269.3 2122.2,300ZM140.9,300Q156,174.8 178.6,91.4Q171.1,195.7 159.8,300ZM1495.2,300Q1497,196.3 1466.4,127.1Q1498.8,213.6 1514.1,300ZM1640.3,300Q1649.7,256.9 1667.6,228.1Q1659.1,264.1 1650.1,300ZM2313.4,300Q2319.2,213.9 2301,156.6Q2324.9,228.3 2334,300ZM1216.5,300Q1220.3,213.7 1210.2,156.2Q1224.1,228.1 1229.1,300ZM463.4,300Q476.7,242.7 511.7,204.5Q490,252.2 472.4,300ZM1549.5,300Q1560.3,179.9 1568.8,99.8Q1571.1,199.9 1566.8,300ZM641.5,300Q649.7,209.9 662.7,149.8Q657.9,224.9 651.4,300ZM1647.3,300Q1660.6,233.6 1681.2,189.3Q1674,244.6 1663.8,300ZM627.4,300Q636.4,244.7 650.9,207.9Q645.4,254 638.2,300ZM1632.4,300Q1649.9,208.2 1682.5,147.1Q1667.5,223.5 1651.2,300ZM1933.7,300Q1940.4,246.7 1927.6,211.1Q1947.1,255.5 1953.5,300ZM1462.5,300Q1474.6,213.1 1499.6,155.1Q1486.7,227.5 1474.2,300ZM2093.6,300Q2102,259.6 2101.4,232.7Q2110.4,266.3 2110.7,300ZM2283,300Q2289,238.3 2281.4,197.2Q2295.1,248.6 2298.9,300ZM1000.4,300Q1001.5,210.1 965.9,150.2Q1002.7,225.1 1020.5,300ZM1211.1,300Q1216.3,230.2 1212.1,183.7Q1221.5,241.8 1223.5,300ZM557.5,300Q560.3,266.8 550.7,244.6Q563,272.3 567.8,300ZM918.9,300Q920.2,242.8 905.1,204.7Q921.5,252.3 929.1,300ZM86.3,300Q100.1,214.7 112.5,157.9Q113.8,228.9 107.5,300ZM2299.7,300Q2310.1,218.3 2316.4,163.8Q2320.5,231.9 2317.3,300ZM898.8,300Q903.3,264 899.2,240Q907.9,270 909.9,300ZM150.4,300Q160.1,243.1 162.8,205.2Q169.8,252.6 168.5,300ZM738.6,300Q753,271 776.7,251.7Q767.4,275.9 755.6,300ZM1863.6,300Q1861.2,203.9 1828.9,139.9Q1858.9,220 1875.1,300ZM730.8,300Q733.3,252.5 725.6,220.8Q735.8,260.4 739.6,300ZM2138.2,300Q2142.4,244.5 2141.5,207.5Q2146.6,253.8 2147,300ZM1663.6,300Q1673.2,260.2 1671.8,233.7Q1682.9,266.8 1683.6,300ZM1480.5,300Q1482.5,265.3 1456.7,242.2Q1484.6,271.1 1497.5,300ZM2051.4,300Q2053.1,163.2 2028.6,72.1Q2054.8,186 2067,300ZM1913.6,300Q1925.8,269.8 1952.7,249.7Q1938.1,274.9 1924.7,300ZM78.4,300Q78.2,243.7 60.3,206.1Q78,253.1 87,300ZM1776.9,300Q1784.2,239.9 1772.9,199.8Q1791.4,249.9 1797.1,300ZM351.2,300Q348.8,254.5 313,224.1Q346.4,262 364.2,300ZM1790.9,300Q1787.9,274.2 1757.2,257.1Q1784.8,278.5 1800.1,300ZM623.4,300Q636.3,230.6 671.3,184.3Q649.1,242.2 631.6,300ZM1520.2,300Q1532.2,213 1563.3,155Q1544.2,227.5 1528.6,300ZM556.2,300Q558.2,241.8 536.8,203Q560.2,251.5 570.9,300ZM2130.6,300Q2147.7,228.3 2183.7,180.5Q2164.8,240.2 2146.9,300ZM572.9,300Q590,180.4 621.9,100.7Q607.1,200.3 591.2,300ZM1895.8,300Q1902.9,225.2 1887.3,175.3Q1909.9,237.7 1917.7,300ZM1118.3,300Q1123.5,216.9 1106.7,161.5Q1128.7,230.8 1137.1,300ZM1807,300Q1820.4,185.9 1837.3,109.8Q1833.8,204.9 1825.4,300ZM1102.8,300Q1106,211.7 1094.9,152.8Q1109.3,226.4 1114.8,300ZM113.1,300Q121.5,221.1 137,168.6Q129.9,234.3 122.1,300ZM1139.1,300Q1156.3,267.3 1187,245.5Q1173.6,272.8 1158.3,300ZM1697.9,300Q1701.4,212.4 1689.5,154Q1704.8,227 1710.8,300ZM1564.5,300Q1575,265 1582.8,241.7Q1585.4,270.8 1581.5,300ZM100.8,300Q103.9,225.1 72.7,175.1Q107.1,237.6 122.8,300ZM1348.3,300Q1361.5,250.8 1387,218Q1374.8,259 1362.1,300ZM1445.4,300Q1451.7,220 1461,166.7Q1458.1,233.3 1453.4,300ZM1539.9,300Q1541.7,235.9 1524,193.2Q1543.5,246.6 1552.3,300ZM2069.5,300Q2071.4,255.4 2042.1,225.7Q2073.2,262.8 2087.9,300ZM872,300Q886.2,275.4 904.1,258.9Q900.4,279.5 891.4,300ZM1159.8,300Q1172.5,260.1 1189.5,233.5Q1185.3,266.7 1176.8,300ZM415.1,300Q418.7,220 409.4,166.7Q422.3,233.3 427,300ZM1397.6,300Q1408.5,268.6 1422.4,247.7Q1419.4,273.9 1412.5,300ZM478.5,300Q494,258.3 515.2,230.5Q509.5,265.3 498.9,300ZM1457,300Q1455.9,204.7 1424.3,141.2Q1454.8,220.6 1470.7,300ZM1334.4,300Q1348,242.7 1381.7,204.6Q1361.5,252.3 1344.6,300ZM532.5,300Q542.8,262.5 555.6,237.5Q553.1,268.7 546.7,300ZM1912.9,300Q1923.1,219.4 1922.3,165.6Q1933.4,232.8 1933.9,300ZM1328.9,300Q1335.1,206.4 1320,144Q1341.2,222 1348.8,300ZM364.3,300Q364.1,223.6 339.8,172.6Q363.8,236.3 376,300ZM1884.4,300Q1885.9,208.7 1853.9,147.9Q1887.5,224 1903.5,300ZM809.1,300Q816.7,214 825.1,156.7Q824.3,228.3 820,300ZM1792.9,300Q1805.4,273.4 1834.9,255.7Q1817.9,277.8 1803.1,300ZM1538.8,300Q1545.1,233.8 1531.2,189.6Q1551.3,244.8 1558.2,300ZM995.9,300Q997.4,245.7 982.3,209.5Q998.9,254.8 1006.5,300ZM1662.7,300Q1662.8,226 1644.3,176.7Q1662.8,238.4 1672,300ZM1297.6,300Q1309.9,225.9 1339.9,176.5Q1322.2,238.3 1307.2,300ZM2057.5,300Q2070.7,229 2104.4,181.7Q2083.9,240.9 2067,300ZM560.4,300Q575.6,205.6 599.5,142.7Q590.8,221.4 578.8,300ZM1454.6,300Q1451.1,239.7 1420.2,199.5Q1447.5,249.7 1463,300ZM691.1,300Q704.2,224.1 718.6,173.5Q717.3,236.8 710.1,300ZM2282.2,300Q2287.7,199.9 2269.7,133.1Q2293.3,216.6 2302.3,300ZM1919.9,300Q1932.9,258.9 1945.8,231.5Q1945.8,265.7 1939.3,300ZM1050.7,300Q1051.3,275.5 1023.4,259.1Q1051.9,279.6 1065.9,300ZM1163.1,300Q1169.4,239.4 1158.4,199Q1175.6,249.5 1181.1,300ZM2339.6,300Q2337.1,222 2309.6,170.1Q2334.6,235 2348.4,300ZM652.5,300Q655.7,210.7 635.1,151.2Q658.9,225.6 669.2,300ZM1750.1,300Q1754.4,250.2 1754.5,216.9Q1758.7,258.5 1758.6,300ZM168.7,300Q174,268 152.3,246.7Q179.2,273.4 190.1,300ZM583.3,300Q584.3,215.6 564.1,159.3Q585.2,229.6 595.3,300ZM1426.7,300Q1427.5,213.9 1403.7,156.5Q1428.2,228.2 1440.1,300ZM567.2,300Q577,240.2 578.1,200.4Q586.8,250.2 586.2,300ZM230,300Q239.7,266.1 258.9,243.5Q249.4,271.8 239.8,300ZM1685.5,300Q1697,257.6 1702.9,229.4Q1708.4,264.7 1705.4,300ZM1090.5,300Q1101.9,202 1107.4,136.6Q1113.3,218.3 1110.5,300ZM642.7,300Q646,260.3 626.2,233.9Q649.3,266.9 659.2,300ZM78.7,300Q96.4,242 128.7,203.3Q114.1,251.6 98,300ZM893.6,300Q894.6,211.8 858.6,153.1Q895.5,226.5 913.5,300ZM694,300Q705.1,217.2 705.6,162Q716.1,231 715.9,300ZM1110.6,300Q1109.9,257.4 1077.3,229Q1109.3,264.5 1125.6,300ZM2113,300Q2123,269.2 2128.7,248.7Q2132.9,274.4 2130.1,300ZM2190.9,300Q2202.8,263 2214.7,238.4Q2214.6,269.2 2208.6,300ZM1389,300Q1390.4,214.9 1378.4,158.2Q1391.8,229.1 1397.8,300ZM599.8,300Q609.8,255.7 609.5,226.2Q619.8,263.1 619.9,300ZM204.5,300Q211.2,247.4 203.8,212.3Q218,256.1 221.7,300ZM295.6,300Q303.7,265.8 317.4,242.9Q311.8,271.5 304.9,300ZM1626.2,300Q1623.6,239.8 1594.9,199.6Q1621,249.8 1635.3,300ZM354.6,300Q364.9,209.3 380.6,148.8Q375.1,224.4 367.3,300ZM1653.8,300Q1668.8,216.6 1692.3,161Q1683.8,230.5 1672.1,300ZM1894.7,300Q1906.2,236.6 1935,194.4Q1917.7,247.2 1903.3,300ZM772.7,300Q780.5,275 794.1,258.3Q788.3,279.2 781.5,300ZM1004,300Q1008.4,270.2 983,250.4Q1012.8,275.2 1025.5,300ZM1296.1,300Q1305.9,229 1308.4,181.6Q1315.8,240.8 1314.5,300ZM1543.7,300Q1561.4,271.5 1596.7,252.5Q1579.1,276.2 1561.4,300ZM1243.5,300Q1247.6,238.4 1237.5,197.4Q1251.6,248.7 1256.7,300ZM1063.1,300Q1074.8,262 1083.1,236.7Q1086.4,268.4 1082.3,300ZM469.5,300Q469.6,202.3 440.5,137.2Q469.7,218.6 484.3,300ZM894.2,300Q895.5,215.2 875.2,158.6Q896.7,229.3 906.8,300ZM181.7,300Q182.5,241.8 157.8,203Q183.3,251.5 195.7,300ZM1662.8,300Q1672.3,267.9 1678.1,246.4Q1681.7,273.2 1678.8,300ZM1378.2,300Q1382.8,263.2 1360,238.7Q1387.5,269.4 1398.9,300ZM350.9,300Q370.4,228.2 406.3,180.3Q389.8,240.2 371.9,300ZM602.7,300Q607.1,237.4 594.6,195.7Q611.4,247.9 617.6,300ZM193.6,300Q201.4,228.5 217,180.8Q209.3,240.4 201.6,300ZM493.8,300Q504.3,229 504.4,181.7Q514.8,240.8 514.8,300ZM2266.2,300Q2267.5,257.9 2250.2,229.8Q2268.9,264.9 2277.5,300ZM1067,300Q1080.9,199.6 1101.6,132.7Q1094.8,216.3 1084.4,300ZM833.9,300Q847.1,231.3 865.5,185.5Q860.3,242.7 851.1,300ZM939.5,300Q951.4,245.4 956.2,209Q963.3,254.5 961,300ZM135.3,300Q148.3,241 170.6,201.6Q161.4,250.8 150.2,300ZM1334.5,300Q1340.9,216.2 1330.7,160.4Q1347.2,230.2 1352.3,300ZM1926,300Q1939.3,212.7 1975.5,154.5Q1952.7,227.2 1934.6,300ZM683.7,300Q687.3,217.9 675.2,163.2Q690.9,231.6 697,300ZM1060,300Q1079.8,272.7 1116.2,254.5Q1099.7,277.3 1081.5,300ZM1216.4,300Q1225.4,204.2 1218.8,140.4Q1234.3,220.2 1237.6,300ZM31.4,300Q32.9,205.3 15.7,142.1Q34.4,221.1 43,300ZM826.9,300Q824.2,204.9 797,141.5Q821.6,220.8 835.2,300ZM441.5,300Q445.9,242 420,203.4Q450.2,251.7 463.1,300ZM1649.2,300Q1654.5,245.8 1648,209.7Q1659.8,254.8 1663.1,300ZM282.3,300Q281.3,275.2 249.7,258.7Q280.3,279.4 296.2,300ZM1946.9,300Q1961.2,223.5 1993.2,172.4Q1975.5,236.2 1959.5,300ZM683.7,300Q697.8,221 720.5,168.3Q711.8,234.1 700.4,300ZM1840.2,300Q1846.9,218.4 1843.7,164Q1853.7,232 1855.3,300ZM1434.4,300Q1431.1,223.4 1397.2,172.4Q1427.8,236.2 1444.8,300ZM1671.5,300Q1680.8,260 1681.6,233.4Q1690,266.7 1689.6,300ZM1824.2,300Q1822.6,253.7 1786.4,222.8Q1821,261.4 1839.1,300ZM1714.3,300Q1727.9,260.4 1746.6,234Q1741.4,267 1732.1,300ZM1554.2,300Q1570.8,266 1594.4,243.3Q1587.3,271.6 1575.5,300ZM776,300Q773.9,225.4 744.2,175.6Q771.8,237.8 786.6,300ZM247.2,300Q246.9,251.1 228.5,218.6Q246.5,259.3 255.7,300ZM235.4,300Q245.1,227.2 242.3,178.6Q254.9,239.3 256.3,300ZM121.6,300Q124.7,255.8 116.2,226.3Q127.9,263.2 132.1,300ZM436.4,300Q453.2,242.2 478.8,203.7Q470.1,251.9 457.3,300ZM720.1,300Q737.5,200.2 768.4,133.7Q754.9,216.9 739.5,300ZM2092.9,300Q2107.1,235.8 2125.8,193.1Q2121.2,246.5 2111.9,300ZM1638.5,300Q1641,264.3 1627.3,240.6Q1643.4,270.3 1650.3,300ZM1350.4,300Q1363.6,273 1376.4,255Q1376.9,277.5 1370.6,300ZM1729.9,300Q1742.3,202.2 1768.2,137.1Q1754.7,218.5 1741.7,300ZM1111.9,300Q1125.6,219.3 1144.1,165.5Q1139.3,232.7 1130.1,300ZM589.5,300Q599.3,252.6 607,220.9Q609.1,260.5 605.2,300ZM654.6,300Q664.4,205.4 665.9,142.3Q674.2,221.1 673.5,300ZM707.6,300Q714.7,223.3 724,172.1Q721.8,236.1 717.2,300ZM686.2,300Q692.1,271.1 691.5,251.8Q698.1,275.9 698.4,300ZM2138.7,300Q2145.5,170.3 2143.7,83.8Q2152.4,191.9 2153.3,300ZM1593.9,300Q1597.8,217.6 1595.6,162.6Q1601.6,231.3 1602.7,300ZM30.6,300Q42.3,215.2 64.6,158.6Q54.1,229.3 43,300ZM1383.8,300Q1389.2,223.8 1378,173Q1394.5,236.5 1400.1,300ZM1503.8,300Q1505.1,228.8 1471.2,181.3Q1506.5,240.6 1523.5,300ZM1409.1,300Q1411.7,244.9 1404.9,208.1Q1414.3,254.1 1417.6,300ZM53.6,300Q52.9,261 19.5,234.9Q52.2,267.5 68.9,300ZM2392.2,300Q2405.3,251.4 2431,219Q2418.4,259.5 2405.5,300ZM1963.7,300Q1970.7,263.9 1976.2,239.9Q1977.7,269.9 1974.9,300ZM1868.6,300Q1872.9,211.6 1870.3,152.6Q1877.2,226.3 1878.6,300ZM747.5,300Q751.5,227.4 742.2,179Q755.5,239.5 760.2,300ZM1663.5,300Q1678,223.9 1694.7,173.2Q1692.5,236.6 1684.2,300ZM1107.8,300Q1114.1,269.2 1101.5,248.6Q1120.4,274.3 1126.7,300ZM26.4,300Q34.1,228.4 24.8,180.7Q41.9,240.4 46.5,300ZM1872.2,300Q1879.3,258 1864,230.1Q1886.4,265 1894,300ZM48.2,300Q57.8,230.2 65.1,183.7Q67.4,241.8 63.7,300ZM87,300Q101.7,251.6 124.8,219.4Q116.5,259.7 104.9,300ZM2382.1,300Q2392.3,231.6 2406.8,185.9Q2402.4,243 2395.1,300ZM1139.5,300Q1151.1,217.4 1179.3,162.3Q1162.8,231.1 1148.7,300ZM690.7,300Q691.9,212.3 670.3,153.9Q693.1,226.9 703.8,300ZM1907.1,300Q1907.3,204.4 1874.8,140.7Q1907.5,220.4 1923.7,300ZM1054.1,300Q1059.7,150.9 1047.9,51.4Q1065.3,175.7 1071.2,300ZM268.7,300Q274.5,266.9 256.4,244.9Q280.3,272.5 289.3,300ZM116.3,300Q129.5,258.6 140.9,231Q142.7,265.5 137,300ZM233,300Q245.4,273.3 259.1,255.5Q257.8,277.7 250.9,300ZM810.1,300Q810.5,201.7 790,136.2Q810.8,218.1 821,300ZM2218.8,300Q2230.6,222.7 2242.6,171.1Q2242.5,235.6 2236.4,300ZM2374.7,300Q2374.8,210.1 2338.7,150.2Q2375,225.1 2393,300ZM1650.4,300Q1655.3,210.5 1634.6,150.9Q1660.2,225.4 1670.6,300ZM445.3,300Q454.4,264.6 461.4,241Q463.6,270.5 460.1,300ZM366.3,300Q377.3,273.2 390.6,255.3Q388.2,277.7 381.6,300ZM1744.8,300Q1752.1,274.8 1750.8,258.1Q1759.4,279 1760,300ZM189.6,300Q205.8,233.2 230.4,188.7Q222,244.3 209.7,300ZM2269.9,300Q2287,259 2311.9,231.7Q2304.1,265.9 2291.7,300ZM996.3,300Q1008.6,221.8 1017.9,169.6Q1021,234.8 1016.4,300ZM1364,300Q1369.7,205 1373.6,141.7Q1375.3,220.9 1373.4,300ZM1437.6,300Q1437.5,207.7 1415.7,146.1Q1437.3,223 1448.2,300ZM411.8,300Q426.6,261.2 442.3,235.3Q441.4,267.6 433.5,300ZM240.1,300Q255.8,273.9 279.5,256.5Q271.5,278.2 259.6,300ZM2367.4,300Q2372.4,209.8 2354.9,149.7Q2377.3,224.8 2386,300ZM2018.3,300Q2034,229.9 2069.1,183.2Q2049.7,241.6 2032.2,300ZM2318.5,300Q2324.6,273.5 2318,255.8Q2330.7,277.9 2334,300ZM374.3,300Q376.3,199.8 359.1,132.9Q378.4,216.5 387,300ZM401.9,300Q418.9,201.8 451,136.4Q436,218.2 420,300ZM463.4,300Q471.5,216.7 473.8,161.2Q479.6,230.6 478.5,300ZM643.6,300Q648.2,224.1 635.6,173.5Q652.9,236.7 659.2,300ZM458.7,300Q471.3,250.7 501.7,217.9Q483.9,259 468.7,300ZM204.2,300Q216.8,212.5 236.3,154.1Q229.4,227.1 219.6,300ZM2381.6,300Q2381.6,259.6 2362.8,232.6Q2381.6,266.3 2390.9,300ZM1492.4,300Q1487.9,262.2 1452.9,237Q1483.3,268.5 1500.8,300ZM12.4,300Q15.6,236.7 8.5,194.6Q18.7,247.3 22.3,300ZM2296.9,300Q2313.4,256.9 2341.3,228.2Q2329.9,264.1 2315.9,300ZM1892.8,300Q1899.9,258.6 1904.5,231.1Q1907.1,265.5 1904.8,300ZM1041.4,300Q1057.7,212.9 1088.5,154.8Q1074,227.4 1058.6,300ZM2179.7,300Q2189.4,204.5 2188.5,140.9Q2199.1,220.4 2199.6,300ZM2053.5,300Q2066.5,261.2 2098.6,235.3Q2079.5,267.6 2063.5,300ZM1405.8,300Q1417.3,250.6 1433.9,217.6Q1428.7,258.8 1420.4,300ZM1607.2,300Q1625,200.5 1661.7,134.2Q1642.7,217.1 1624.3,300ZM2300.4,300Q2306.7,255.7 2289.9,226.1Q2313.1,263.1 2321.5,300ZM1205.2,300Q1206.4,208.4 1188.6,147.4Q1207.6,223.7 1216.6,300ZM571.3,300Q578.8,240.4 575.1,200.7Q586.2,250.3 588.1,300ZM1766.3,300Q1778.2,254.6 1793.4,224.3Q1790.2,262.2 1782.6,300ZM1674.2,300Q1678.3,203.8 1657.5,139.7Q1682.5,219.9 1692.9,300ZM2123.5,300Q2137.2,154.2 2164.5,57Q2150.9,178.5 2137.2,300ZM1408.2,300Q1407.6,205.6 1383.8,142.7Q1406.9,221.4 1418.9,300ZM1391,300Q1397.1,249.6 1378.9,216Q1403.1,258 1412.2,300ZM1294.8,300Q1298.2,204.6 1287.5,141Q1301.6,220.5 1307,300ZM1439.5,300Q1452.9,261.6 1468.1,235.9Q1466.4,268 1458.8,300ZM1914.1,300Q1923.8,225.8 1928.7,176.3Q1933.5,238.2 1931,300ZM678.6,300Q692,270 724.5,249.9Q705.5,275 689.3,300ZM2044.1,300Q2047.1,224.9 2040.2,174.9Q2050.2,237.4 2053.7,300ZM1825.7,300Q1826.9,221.8 1813.6,169.6Q1828.1,234.8 1834.8,300ZM188.5,300Q204.8,207.5 227.8,145.9Q221.1,223 209.6,300ZM893.9,300Q893.6,232.4 862.8,187.3Q893.4,243.6 908.8,300ZM2100.7,300Q2101.1,200.7 2073.4,134.4Q2101.5,217.2 2115.4,300ZM2272.8,300Q2286.6,203.1 2316,138.5Q2300.5,219.3 2285.8,300ZM562.9,300Q569.9,199 561.9,131.7Q576.9,215.8 580.9,300ZM2086.9,300Q2091.6,211.4 2073.2,152.3Q2096.4,226.1 2105.6,300ZM742,300Q753.8,220.4 776.1,167.3Q765.6,233.7 754.4,300ZM1855.3,300Q1858,210.6 1838,150.9Q1860.6,225.5 1870.6,300ZM1060,300Q1059,231 1027.4,185.1Q1058,242.5 1073.9,300ZM254.6,300Q259.6,217.8 261.7,163Q264.5,231.5 263.4,300ZM1850.3,300Q1859.2,274.1 1877.4,256.8Q1868.1,278.4 1859,300ZM1432.8,300Q1435.2,208.6 1427.4,147.7Q1437.5,223.8 1441.4,300ZM1555.2,300Q1561.4,264.7 1555,241.1Q1567.6,270.6 1570.8,300ZM2115.2,300Q2124.2,268.4 2126.2,247.3Q2133.2,273.6 2132.2,300ZM1592.5,300Q1608.4,272.2 1640.7,253.6Q1624.3,276.8 1608.1,300ZM2350.4,300Q2356.8,153.6 2356.6,56.1Q2363.2,178 2363.3,300ZM1010.2,300Q1024.3,169.2 1037.2,82.1Q1038.3,191 1031.9,300ZM2141.5,300Q2151.7,256.8 2162.2,228Q2162,264 2156.7,300ZM922.3,300Q925.2,263.8 899.8,239.7Q928.1,269.9 940.7,300ZM393.8,300Q402.5,262.3 410.9,237.2Q411.2,268.6 407,300ZM755.1,300Q752.9,264.3 728,240.5Q750.7,270.3 763.2,300ZM2196.6,300Q2196.8,212.4 2161.8,154.1Q2197,227 2214.6,300ZM699.3,300Q702,256.3 694.1,227.2Q704.6,263.6 708.6,300ZM329.7,300Q340.6,207 356,144.9Q351.6,222.5 343.9,300ZM268.7,300Q272.7,249.5 266.2,215.8Q276.7,257.9 280,300ZM1097.3,300Q1112.2,263.2 1139,238.7Q1127.1,269.4 1113.7,300ZM152.5,300Q166.4,234.4 191.5,190.7Q180.2,245.3 167.7,300ZM1891.9,300Q1891.7,209.2 1864,148.6Q1891.5,224.3 1905.3,300ZM84.8,300Q89.3,201.3 73.2,135.5Q93.9,217.8 102,300ZM1712.4,300Q1707.5,244.9 1671.1,208.1Q1702.6,254.1 1720.8,300ZM1153.8,300Q1150.5,254.4 1118.7,223.9Q1147.2,262 1163.1,300ZM1951.4,300Q1962.1,251.8 1979.7,219.6Q1972.7,259.8 1963.9,300ZM703.2,300Q705.9,245.3 683.5,208.9Q708.5,254.4 719.7,300ZM457.5,300Q457.6,214 434.5,156.7Q457.6,228.3 469.1,300ZM2066.7,300Q2072.9,268.2 2078,247Q2079.1,273.5 2076.6,300ZM1970.5,300Q1986.2,241.9 2007.4,203.2Q2001.8,251.6 1991.2,300ZM1007.7,300Q1008.4,215.8 989.6,159.7Q1009,229.8 1018.3,300ZM867.5,300Q871.4,251.7 862.6,219.5Q875.3,259.7 879.7,300ZM824.9,300Q834.6,262 851.8,236.6Q844.3,268.3 835.7,300ZM283.6,300Q297.4,223.4 329.9,172.3Q311.2,236.1 295,300ZM388.2,300Q404,233.8 430.9,189.7Q419.7,244.9 406.3,300ZM2394.5,300Q2392.3,206.5 2361.7,144.2Q2390.1,222.1 2405.4,300ZM2061.7,300Q2067.1,222.2 2056.4,170.3Q2072.5,235.2 2077.8,300ZM2085.8,300Q2099.3,220.3 2122.8,167.2Q2112.8,233.6 2101,300ZM1471.8,300Q1480.1,271.8 1484.6,253Q1488.4,276.5 1486.2,300ZM1509,300Q1510.6,155.8 1480.2,59.7Q1512.2,179.8 1527.4,300ZM1050.9,300Q1053.9,249.1 1032.9,215.2Q1056.8,257.6 1067.3,300ZM778.9,300Q788.8,245.7 800.7,209.4Q798.7,254.7 792.8,300ZM2349.3,300Q2347.9,221.7 2317,169.5Q2346.4,234.8 2361.9,300ZM10.2,300Q25.7,237.9 58,196.5Q41.3,248.2 25.2,300ZM965.9,300Q976.9,271.7 985.9,252.8Q987.9,276.4 983.4,300ZM534.1,300Q542.3,213.9 538.1,156.4Q550.6,228.2 552.7,300ZM1302.7,300Q1306.8,258.7 1300.1,231.1Q1310.9,265.5 1314.2,300ZM1532.5,300Q1548,269.6 1568.5,249.3Q1563.4,274.7 1553.1,300ZM344.2,300Q351.5,245.7 339.3,209.5Q358.7,254.7 364.8,300ZM725.5,300Q738.1,234.9 763.3,191.6Q750.7,245.8 738.1,300ZM2291.6,300Q2293.1,211 2261.3,151.7Q2294.7,225.9 2310.6,300ZM993.9,300Q996.6,238.9 967.6,198.2Q999.3,249.1 1013.8,300ZM2278.7,300Q2287.4,253.4 2290,222.4Q2296,261.2 2294.7,300ZM1134.2,300Q1133.7,200.6 1101,134.3Q1133.1,217.1 1149.5,300ZM1293.7,300Q1289.6,251 1255.6,218.3Q1285.5,259.2 1302.5,300ZM1171,300Q1180.2,219.7 1176.8,166.2Q1189.3,233.1 1191,300ZM1767.1,300Q1768.3,158.3 1739.8,63.8Q1769.5,181.9 1783.7,300ZM239.7,300Q254.1,199.8 276.1,133Q268.4,216.5 257.4,300ZM785.1,300Q798.9,248.9 833.5,214.9Q812.8,257.4 795.5,300ZM239.6,300Q253.4,229.3 287.5,182.2Q267.2,241.1 250.1,300ZM749.3,300Q754.9,221 743.2,168.3Q760.6,234.1 766.4,300ZM1090.9,300Q1105.7,172.6 1136.9,87.6Q1120.4,193.8 1104.8,300ZM1324.6,300Q1326.6,230.1 1315.3,183.5Q1328.5,241.8 1334.2,300ZM2187.9,300Q2195.2,227.5 2187.7,179.2Q2202.6,239.6 2206.4,300ZM2235.7,300Q2233.4,230.8 2202.6,184.7Q2231.1,242.4 2246.5,300ZM2249.4,300Q2255.2,244.6 2258.3,207.7Q2260.9,253.9 2259.3,300ZM351.4,300Q353.1,264.2 320.4,240.4Q354.8,270.2 371.2,300ZM448.3,300Q449.5,264.8 430.7,241.4Q450.7,270.7 460.1,300ZM1526.8,300Q1530.8,243.6 1524.9,206Q1534.8,253 1537.7,300ZM1259.2,300Q1265.8,256.6 1272.7,227.7Q1272.4,263.8 1269,300ZM1161.3,300Q1173.6,213.1 1188.8,155.2Q1185.9,227.6 1178.4,300ZM2270.5,300Q2286.1,211.7 2312.7,152.9Q2301.8,226.4 2288.5,300ZM1417.4,300Q1432.6,233.7 1453.7,189.6Q1447.7,244.8 1437.1,300ZM1782.6,300Q1786.3,211.3 1764.1,152.1Q1790,226.1 1801.1,300ZM55,300Q59.1,263.2 46.4,238.6Q63.2,269.3 69.6,300ZM426.1,300Q438,209.9 456.6,149.8Q449.9,224.9 440.6,300ZM2265,300Q2277.5,245.6 2303.9,209.3Q2289.9,254.6 2276.7,300ZM1304.5,300Q1314,270.3 1323.9,250.5Q1323.5,275.2 1318.6,300ZM602.8,300Q616.7,214.5 641.3,157.6Q630.5,228.8 618.2,300ZM1657.5,300Q1669.4,209.5 1682.4,149.2Q1681.2,224.6 1674.7,300ZM419.5,300Q425.3,260.5 409,234.2Q431.2,267.1 439.3,300ZM627.6,300Q636.8,213 635.4,155Q646.1,227.5 646.8,300ZM1214.5,300Q1222.8,239.3 1215.4,198.8Q1231.1,249.4 1234.9,300ZM943.4,300Q939.4,245.2 903.8,208.7Q935.4,254.3 953.2,300ZM896.2,300Q910.4,217.3 931.3,162.2Q924.7,231.1 914.2,300ZM1755.9,300Q1767.1,215 1792.6,158.3Q1778.3,229.1 1765.6,300ZM986.6,300Q984.7,265.1 950.4,241.8Q982.9,270.9 1000.1,300ZM25,300Q23.4,224.9 -4.6,174.8Q21.8,237.4 35.8,300ZM2359,300Q2364.7,165.5 2352.5,75.8Q2370.3,187.9 2376.4,300ZM995,300Q996.6,225.9 967.4,176.5Q998.3,238.3 1013,300ZM1831.4,300Q1838,180.9 1827,101.5Q1844.6,200.8 1850.1,300ZM518.8,300Q527.6,212.9 530.5,154.9Q536.4,227.5 534.9,300ZM1526.2,300Q1543.2,178.8 1579.8,98Q1560.1,199 1541.8,300ZM1333,300Q1350.1,238.9 1375.7,198.2Q1367.2,249.1 1354.4,300ZM551.3,300Q563.5,242.4 583.5,204Q575.7,252 565.7,300ZM1888.4,300Q1907,272.5 1938.7,254.2Q1925.6,277.1 1909.7,300ZM79.3,300Q96.2,188.9 127.7,114.9Q113.1,207.5 97.4,300ZM1803.2,300Q1815.3,241.9 1839.7,203.2Q1827.3,251.6 1815.1,300ZM1817.8,300Q1826.8,222.6 1841.1,171Q1835.9,235.5 1828.8,300ZM1485.5,300Q1497.5,200.1 1502,133.4Q1509.5,216.7 1507.2,300ZM203,300Q212.8,260.8 214.5,234.7Q222.6,267.3 221.7,300ZM196,300Q208.8,205.9 242.2,143.2Q221.5,221.6 204.8,300ZM869.3,300Q882.8,264 918.6,240Q896.4,270 878.6,300ZM2279.9,300Q2290.4,267 2304,245Q2300.8,272.5 2294,300ZM251.1,300Q264.9,218 293.5,163.4Q278.8,231.7 264.5,300ZM1321.4,300Q1334.5,199.1 1353.3,131.8Q1347.7,215.9 1338.3,300ZM2092.3,300Q2091.6,233.6 2057.7,189.4Q2090.9,244.7 2107.8,300ZM1235,300Q1244.2,262.2 1251.1,236.9Q1253.5,268.5 1250,300ZM84.4,300Q91.5,245.2 78.4,208.6Q98.7,254.3 105.2,300ZM915.9,300Q923.9,257.5 937.5,229.2Q931.9,264.6 925.1,300ZM1273.4,300Q1283.4,209.5 1288.3,149.2Q1293.4,224.6 1290.9,300ZM1880.9,300Q1881.6,271.5 1862.7,252.6Q1882.2,276.3 1891.6,300ZM4.1,300Q19.6,229.5 43.5,182.5Q35,241.2 23,300ZM405.9,300Q415.2,250 415.1,216.6Q424.5,258.3 424.6,300ZM1542.2,300Q1555.3,258.9 1564.2,231.4Q1568.3,265.7 1563.8,300ZM107.1,300Q115.7,201.8 129.7,136.3Q124.2,218.2 117.2,300ZM1749.5,300Q1759.3,224.9 1768,174.8Q1769.1,237.4 1764.7,300ZM421.4,300Q421.1,210.5 388.1,150.8Q420.8,225.4 437.4,300ZM217.8,300Q231.1,219.3 260.5,165.5Q244.3,232.7 229.6,300ZM724.3,300Q724.7,210.8 694.4,151.3Q725.2,225.6 740.4,300ZM354,300Q364.7,187.8 382.6,113.1Q375.4,206.5 366.4,300ZM1364,300Q1383.1,221.3 1419.4,168.9Q1402.1,234.4 1384,300ZM2195.3,300Q2206.6,204.1 2211.7,140.2Q2217.9,220.1 2215.3,300ZM2131.3,300Q2134.6,226.7 2104.6,177.9Q2137.8,238.9 2152.8,300ZM2132.4,300Q2139.2,248.1 2135.8,213.5Q2146.1,256.8 2147.8,300ZM2168.2,300Q2183.9,242.3 2202.9,203.9Q2199.5,252 2190,300ZM1327.3,300Q1333.3,231.6 1333.3,185.9Q1339.3,243 1339.3,300ZM168,300Q177.9,245.6 186.3,209.3Q187.7,254.6 183.4,300ZM2114.4,300Q2126.3,242.5 2157.8,204.1Q2138.2,252 2122.5,300ZM171.8,300Q174.1,236.2 165,193.6Q176.4,246.8 181,300ZM437.9,300Q435.6,242.9 405.8,204.9Q433.3,252.4 448.2,300ZM1417.9,300Q1428.8,199.2 1451.5,132.1Q1439.7,216 1428.3,300ZM1592.2,300Q1599.6,229.2 1591,182.1Q1607.1,241 1611.4,300ZM482.6,300Q494.3,223.2 519.9,172Q506.1,236 493.3,300ZM2182.7,300Q2187.9,174.7 2170.5,91.1Q2193.1,195.6 2201.8,300ZM1804,300Q1807.4,236 1803.2,193.3Q1810.8,246.7 1812.9,300ZM796,300Q800.8,232.4 789.1,187.4Q805.6,243.7 811.4,300ZM399.1,300Q414.9,234.6 434.7,191Q430.8,245.5 420.9,300ZM479.8,300Q494.5,255.2 516.4,225.4Q509.2,262.7 498.2,300ZM1128.8,300Q1138.3,271.8 1135.6,253Q1147.8,276.5 1149.2,300ZM123.4,300Q124.6,258.4 97,230.7Q125.8,265.3 139.6,300ZM736.5,300Q753.9,246.3 785.1,210.5Q771.3,255.2 755.7,300ZM1106.5,300Q1114,190.2 1114.7,117Q1121.4,208.5 1121.1,300ZM769,300Q774.9,263.3 758.2,238.9Q780.7,269.5 789,300ZM2369.4,300Q2381.1,225 2404.8,175.1Q2392.8,237.5 2380.9,300ZM85.3,300Q87.4,265.3 62.5,242.2Q89.5,271.1 102,300ZM597.6,300Q606.5,255.6 625.5,226Q615.5,263 606,300ZM524.3,300Q533.8,267.5 553.7,245.8Q543.3,272.9 533.4,300ZM552.9,300Q556.8,267.9 545.1,246.5Q560.7,273.3 566.6,300ZM741.6,300Q742.1,229.7 724.3,182.8Q742.6,241.4 751.4,300ZM146.5,300Q151.7,230.4 141.9,184Q156.9,242 161.7,300ZM2029.9,300Q2028.2,229.6 1994.1,182.7Q2026.6,241.4 2043.6,300ZM944.5,300Q961.6,237.9 998.3,196.5Q978.6,248.3 960.2,300ZM2111.3,300Q2120.9,218.8 2120.5,164.6Q2130.5,232.3 2130.7,300ZM996.6,300Q1005.7,203 1013.6,138.4Q1014.8,219.2 1010.9,300ZM1320.4,300Q1326.1,230.5 1320.7,184.2Q1331.9,242.1 1334.6,300ZM706.8,300Q721.3,234.7 740,191.1Q735.7,245.5 726.4,300ZM532,300Q538,218.4 533.5,164Q544.1,232 546.4,300ZM1213.6,300Q1227.3,262.6 1240.4,237.6Q1241.1,268.8 1234.5,300ZM1294.4,300Q1306.9,254.1 1322.7,223.4Q1319.4,261.7 1311.5,300ZM1471.1,300Q1476.6,254 1458,223.4Q1482.1,261.7 1491.4,300ZM739.6,300Q754,260.6 776.8,234.3Q768.5,267.2 757.1,300ZM159.9,300Q163.7,267.4 138.3,245.6Q167.5,272.8 180.2,300ZM1056.2,300Q1056.3,232.1 1040.6,186.9Q1056.4,243.5 1064.2,300ZM1371.3,300Q1379.7,260.7 1380.3,234.5Q1388.1,267.3 1387.7,300ZM1053.2,300Q1057.4,212.6 1037.6,154.3Q1061.6,227.1 1071.5,300ZM1331.2,300Q1340.1,221.8 1346.8,169.6Q1349,234.8 1345.7,300ZM1938.1,300Q1946.4,237.9 1942.6,196.5Q1954.6,248.2 1956.5,300ZM1227,300Q1231.7,198.1 1232.1,130.2Q1236.3,215.1 1236.1,300ZM1988.4,300Q1985.3,256 1951,226.6Q1982.2,263.3 1999.4,300ZM842.3,300Q844.1,155.8 813.8,59.7Q846,179.9 861.2,300ZM2375,300Q2376.5,228.3 2351.1,180.4Q2377.9,240.2 2390.6,300ZM1020.4,300Q1025.7,197.8 1029.7,129.6Q1030.9,214.8 1028.8,300ZM287.3,300Q289.8,234.3 283,190.5Q292.2,245.2 295.6,300ZM1803.7,300Q1813.3,228.6 1816.1,181.1Q1822.9,240.5 1821.5,300ZM1816.1,300Q1826.8,211.4 1846.4,152.3Q1837.5,226.1 1827.7,300ZM1956.6,300Q1968.6,207.6 1989.8,146Q1980.5,223 1969.9,300ZM2002.7,300Q2011.4,249.3 2006.1,215.5Q2020.2,257.8 2022.9,300ZM1481.6,300Q1485.9,224.6 1463.3,174.4Q1490.2,237.2 1501.5,300ZM1674.9,300Q1689.4,270.6 1707.5,250.9Q1703.8,275.5 1694.8,300ZM1636.5,300Q1637.1,213.3 1619,155.5Q1637.6,227.7 1646.7,300ZM440.5,300Q458,271.2 490.1,252Q475.6,276 459.5,300ZM142.9,300Q145.1,274.9 130.7,258.2Q147.2,279.1 154.4,300ZM1635.9,300Q1641.3,243 1641.9,205Q1646.8,252.5 1646.4,300ZM893.8,300Q895.2,203.5 874.8,139.1Q896.5,219.6 906.7,300ZM389.9,300Q393.5,262.4 377.2,237.3Q397.1,268.7 405.2,300ZM2176.1,300Q2183.2,254.3 2182.9,223.9Q2190.2,262 2190.4,300ZM567.7,300Q573.4,232.3 571.3,187.1Q579.2,243.6 580.3,300ZM1532.3,300Q1539.9,185.9 1542.9,109.8Q1547.5,204.9 1546,300ZM1332.7,300Q1339.5,231.3 1347.2,185.4Q1346.3,242.7 1342.4,300ZM602,300Q606.1,244.8 600.3,208Q610.1,254 613,300ZM1811,300Q1812.1,228.6 1779.3,180.9Q1813.2,240.5 1829.7,300ZM913,300Q916.3,217.6 897.5,162.7Q919.5,231.3 928.9,300ZM224.8,300Q231.5,248.9 223.2,214.8Q238.2,257.4 242.4,300ZM949.8,300Q958.6,258.2 969.7,230.4Q967.4,265.2 961.9,300ZM105.3,300Q108.5,237 104.9,195.1Q111.7,247.5 113.6,300ZM1515.6,300Q1514.6,231.6 1494,185.9Q1513.7,243 1524,300ZM2310.6,300Q2316.6,256.3 2305.4,227.2Q2322.6,263.6 2328.2,300ZM1595.5,300Q1608,214.2 1623.1,157Q1620.6,228.5 1613.1,300ZM1891.6,300Q1901,209.1 1918.1,148.6Q1910.4,224.3 1901.8,300ZM1225.2,300Q1227.3,254.4 1195.4,224Q1229.4,262 1245.4,300ZM618.9,300Q616,192.8 582.2,121.3Q613.2,210.7 630.1,300ZM1545.2,300Q1548.8,251.9 1540.6,219.8Q1552.4,259.9 1556.5,300ZM803.3,300Q814.6,272.7 821.8,254.5Q825.8,277.3 822.2,300ZM1513.2,300Q1524.9,263.9 1543,239.9Q1536.7,270 1527.7,300ZM1068.8,300Q1081.2,178.6 1104.1,97.7Q1093.7,198.9 1082.2,300ZM649.8,300Q658.4,271.3 659.1,252.2Q666.9,276.1 666.5,300ZM904.9,300Q907.9,198.4 885,130.6Q910.9,215.3 922.3,300ZM916.5,300Q917.4,198.6 882.3,130.9Q918.2,215.5 935.8,300ZM2383.6,300Q2394,239.5 2419,199.1Q2404.3,249.6 2391.8,300ZM915.5,300Q923.4,194 913.9,123.3Q931.3,211.7 936,300ZM1525,300Q1530.6,149.9 1518.3,49.8Q1536.1,174.9 1542.2,300ZM1184.1,300Q1194.6,240.4 1199.3,200.7Q1205.1,250.4 1202.7,300ZM1891.9,300Q1893.5,237.6 1862.6,196Q1895.1,248 1910.5,300ZM944.6,300Q951.9,274.4 946.1,257.3Q959.1,278.6 962,300ZM428.6,300Q433.8,259 422.7,231.6Q439,265.8 444.6,300ZM27.5,300Q26.8,253.3 1.6,222.1Q26.1,261.1 38.8,300ZM1617.2,300Q1631.2,224.7 1654.8,174.5Q1645.2,237.2 1633.4,300ZM753.6,300Q770.1,229.7 801.1,182.9Q786.7,241.4 771.2,300ZM844.2,300Q858.3,178.4 880.7,97.3Q872.4,198.6 861.2,300ZM60,300Q62.5,253.6 53,222.7Q65,261.4 69.7,300ZM521.2,300Q523,217.3 490.1,162.2Q524.9,231.1 541.3,300ZM639,300Q637.9,226.2 615,176.9Q636.7,238.5 648.2,300ZM1018.5,300Q1015.6,264.6 985.4,240.9Q1012.7,270.5 1027.8,300ZM1109.7,300Q1115.7,209.5 1109.8,149.1Q1121.8,224.6 1124.7,300ZM1517.6,300Q1527.6,251.9 1525,219.9Q1537.6,259.9 1539,300ZM1361.1,300Q1368.8,229.7 1359.1,182.8Q1376.5,241.4 1381.3,300ZM2161.1,300Q2164.8,225.7 2144,176.1Q2168.5,238.1 2178.9,300ZM1707.4,300Q1715.6,182.4 1728.4,104Q1723.8,202 1717.4,300ZM1512.1,300Q1520.4,211.1 1536.1,151.9Q1528.6,225.9 1520.8,300ZM1458.1,300Q1458.7,271.3 1438,252.2Q1459.3,276.1 1469.7,300ZM1323.6,300Q1324.9,216.9 1301,161.6Q1326.2,230.8 1338.2,300ZM752.9,300Q766.9,214.5 797.3,157.6Q780.9,228.8 765.6,300ZM483.7,300Q485.5,273.3 474.2,255.4Q487.4,277.7 493,300ZM1100.7,300Q1113.2,234.4 1128.1,190.6Q1125.7,245.3 1118.2,300ZM859.3,300Q864.1,264.8 854.5,241.4Q868.8,270.7 873.6,300ZM2200.9,300Q2216.8,260.4 2250.8,234.1Q2232.8,267 2215.8,300ZM845.5,300Q852.9,260 849.7,233.4Q860.3,266.7 861.9,300Z"/><rect y="266" width="2400" height="34" fill="#0b1d18"/></svg>
